<svg id="Warstwa_1" data-name="Warstwa 1" xmlns="http://www.w3.org/2000/svg" viewBox="0 0 584.93534 282.00464"><defs><style>.cls-1{fill:#eaae02;}</style></defs><path class="cls-1" d="M86.155,187.41473l10.64919,1.50342-.50114,3.2574H73.62649v-3.38269c5.38724-.50114,7.39179-3.13211,8.39407-5.63781l29.943-74.2938,4.25968-.877,27.93848,71.0364c3.75854,9.52163,6.13895,9.39635,9.77221,10.02277l-.50114,3.13212h-5.51253c-4.13439,0-17.164.37585-17.164.37585V188.417c3.63326-.12529,6.76538-1.00228,5.38724-4.76082l-21.92481-57.00452a71.72606,71.72606,0,0,1-2.25513-6.89065Z"/><path class="cls-1" d="M195.31121,219.36232c5.7631-3.13212,6.76537-5.88838,6.76537-11.65147V150.33047c0-5.51252-.12528-8.64464-3.75854-8.64464h-5.26195v-3.13211c11.65147-2.631,17.9157-5.7631,17.9157-5.7631l.37586.37586a102.87906,102.87906,0,0,0-1.25285,11.15033c2.631-3.13212,7.14123-9.7722,18.41685-9.7722,16.03643,0,22.8018,14.15716,22.8018,27.43734,0,15.78586-9.7722,31.697-32.07287,31.697a52.20834,52.20834,0,0,1-8.89521-.877v14.78359a44.23693,44.23693,0,0,1-.62642,7.14123h13.28017l-.50114,2.88154s-18.918,2.25513-27.18677,5.262Zm47.107-54.123c0-12.779-5.76309-24.5558-17.28928-24.5558-5.76309,0-10.77448,2.75627-14.78359,6.26424v35.58084c0,6.01366,5.262,7.01594,9.89749,7.01594C234.02417,189.54457,242.41824,180.39879,242.41824,165.23935Z"/><path class="cls-1" d="M257.47557,189.16872c5.88838-.62643,8.01822-3.63326,8.01822-8.14351v-30.82c0-5.38724-.12528-8.51936-3.75854-8.51936h-5.88838v-3.2574a108.83567,108.83567,0,0,0,18.54213-5.63781l.37585.37586s-1.12756,4.63553-1.37813,16.03643c5.01139-9.39635,11.27562-14.6583,16.53758-14.6583,2.25512,0,6.5148.62642,6.5148,5.13667a5.17192,5.17192,0,0,1-5.13667,5.51252c-2.50569,0-2.88155-2.00455-5.63781-2.00455-4.385,0-8.1435,4.13439-11.902,8.39407v29.44189a36.9174,36.9174,0,0,1-.62643,6.76538l12.15262,1.12756-.50114,2.88155-27.31206.7517Z"/><path class="cls-1" d="M327.671,134.54461c18.16628,0,26.81092,12.15261,26.81092,27.31205,0,15.41-9.39635,31.82231-28.94076,31.82231-17.53985,0-26.56035-12.52847-26.56035-28.31434C298.98083,150.70633,306.74848,134.54461,327.671,134.54461Zm-.50114,55.25053c10.77448,0,17.79042-9.14578,17.79042-24.05465.12529-12.779-5.262-27.43734-18.79269-27.43734-12.52847,0-17.66514,12.15261-17.66514,24.30522C308.50247,175.26212,313.88971,189.79514,327.16988,189.79514Z"/><path class="cls-1" d="M360.88175,219.36232c5.7631-3.13212,6.76537-5.88838,6.76537-11.65147V150.33047c0-5.51252-.12528-8.64464-3.75854-8.64464h-5.262v-3.13211c11.65147-2.631,17.91571-5.7631,17.91571-5.7631l.37585.37586a102.87906,102.87906,0,0,0-1.25285,11.15033c2.631-3.13212,7.14123-9.7722,18.41685-9.7722,16.03643,0,22.80181,14.15716,22.80181,27.43734,0,15.78586-9.77221,31.697-32.07288,31.697a52.20834,52.20834,0,0,1-8.89521-.877v14.78359a44.23693,44.23693,0,0,1-.62642,7.14123h13.28017l-.50114,2.88154s-18.918,2.25513-27.18677,5.262Zm47.107-54.123c0-12.779-5.76309-24.5558-17.28928-24.5558-5.76309,0-10.77448,2.75627-14.78359,6.26424v35.58084c0,6.01366,5.262,7.01594,9.89749,7.01594C399.59471,189.54457,407.98878,180.39879,407.98878,165.23935Z"/><path class="cls-1" d="M453.65247,134.54461c18.16627,0,26.81091,12.15261,26.81091,27.31205,0,15.41-9.39634,31.82231-28.94075,31.82231-17.53985,0-26.56035-12.52847-26.56035-28.31434C424.96228,150.70633,432.72993,134.54461,453.65247,134.54461Zm-.50114,55.25053c10.77448,0,17.79042-9.14578,17.79042-24.05465.12529-12.779-5.262-27.43734-18.7927-27.43734-12.52846,0-17.66513,12.15261-17.66513,24.30522C434.48392,175.26212,439.87116,189.79514,453.15133,189.79514Z"/><path class="cls-1" d="M489.34315,176.01383h3.63325c.75171,10.64919,8.14351,13.78131,14.28246,13.78131,6.76537,0,11.27561-3.508,11.27561-9.14578,0-13.78131-29.44189-13.15489-29.44189-30.82,0-8.64464,6.5148-15.28472,20.17083-15.28472a65.0122,65.0122,0,0,1,15.15944,2.12984l-2.38041,12.52846h-3.75853c.12528-10.52391-9.39635-10.77448-11.77676-10.77448-7.51708,0-10.02278,4.63553-10.02278,8.39407,0,13.53075,29.31661,11.40091,29.31661,31.0706,0,9.7722-7.51707,15.78587-19.29383,15.78587-5.13667,0-18.54213-1.00228-18.54213-8.39408A80.76917,80.76917,0,0,1,489.34315,176.01383Z"/><path class="cls-1" d="M82.099,67.78792a59.34013,59.34013,0,0,1,41.05656-7.76483,58.33647,58.33647,0,0,1,47.87393,49.42825,59.108,59.108,0,0,1,.46581,10.36024,56.7641,56.7641,0,0,1-4.52343,20.07371,57.45307,57.45307,0,0,1-11.263,17.07769,56.61765,56.61765,0,0,1-35.94625,17.32409A57.42269,57.42269,0,0,1,99.74595,172.456a55.42309,55.42309,0,0,1-39.32081-41.32732,55.1037,55.1037,0,0,1-.77836-19.60817,54.21813,54.21813,0,0,1,6.1426-18.51174,53.51453,53.51453,0,0,0,17.52806,68.53038A52.73484,52.73484,0,0,0,100.586,169.2278a53.75689,53.75689,0,0,0,18.76333,1.07785,52.16767,52.16767,0,0,0,17.81587-5.55737,51.76613,51.76613,0,0,0,24.24622-27.12835,50.53751,50.53751,0,0,0-22.79751-62.76688,49.499,49.499,0,0,0-16.91635-5.60453,50.13391,50.13391,0,0,0-17.71095.71661,48.96951,48.96951,0,0,0-16.19326,6.85124l-.00477.00313a5.33791,5.33791,0,0,1-5.84248-8.93525C81.99018,67.8554,82.05433,67.8153,82.099,67.78792Z"/></svg>